<svg xmlns="http://www.w3.org/2000/svg" style="display: none;">
  
  <symbol id="icon-rocket" viewBox="0 0 24 24">
    <path d="M4.5 16.5c-1.5 1.25-2 5-2 5s3.75-.5 5-2c.625-.625 1-1.5 1-2.5 0-1-.5-1.875-1-2.5-.625-.5-1.5-1-2.5-1-1 0-1.875.375-2.5 1z" />
    <path d="M12 15l8.5-8.5M12 15v6M12 21h0M12 15H6M6 15h0" />
  </symbol>

  <symbol id="icon-trend-up" viewBox="0 0 24 24">
    <polyline points="23 6 13.5 15.5 8.5 10.5 1 18" />
  </symbol>

  <symbol id="icon-user" viewBox="0 0 24 24">
    <path d="M16 21v-2a4 4 0 0 0-4-4H6a4 4 0 0 0-4 4v2" />
    <circle cx="9" cy="7" r="4" />
  </symbol>

  <symbol id="icon-edit" viewBox="0 0 24 24">
    <path d="M11 4H4a2 2 0 0 0-2 2v14a2 2 0 0 0 2 2h14a2 2 0 0 0 2-2v-7" />
    <path d="M18.5 2.5a2.121 2.121 0 0 1 3 3L12 15l-4 1 1-4 9.5-9.5z" />
  </symbol>

  <symbol id="icon-users" viewBox="0 0 24 24">
    <path d="M16 21v-2a4 4 0 0 0-4-4H6a4 4 0 0 0-4 4v2" />
    <circle cx="9" cy="7" r="4" />
    <path d="M22 21v-2a4 4 0 0 0-3-3.87" />
    <path d="M16 3.13a4 4 0 0 1 0 7.75" />
  </symbol>

  <symbol id="icon-dollar" viewBox="0 0 24 24">
    <line x1="12" y1="1" x2="12" y2="23" />
    <path d="M17 5H9.5a3.5 3.5 0 0 0 0 7h5a3.5 3.5 0 0 1 0 7H6" />
  </symbol>

  <symbol id="icon-trend-down" viewBox="0 0 24 24">
    <polyline points="23 18 13.5 8.5 8.5 13.5 1 6" />
  </symbol>

  <symbol id="icon-briefcase" viewBox="0 0 24 24">
    <rect x="2" y="7" width="20" height="14" rx="2" ry="2" />
    <path d="M16 21V5a2 2 0 0 0-2-2h-4a2 2 0 0 0-2 2v16" />
  </symbol>

  <symbol id="icon-pin" viewBox="0 0 24 24">
    <path d="M21 10c0 7-9 13-9 13s-9-6-9-13a9 9 0 0 1 18 0z" />
    <circle cx="12" cy="10" r="3" />
  </symbol>

  <symbol id="icon-building" viewBox="0 0 24 24">
    <rect x="4" y="2" width="16" height="20" rx="2" ry="2" />
    <path d="M9 22v-4h6v4" />
    <path d="M8 6h.01" />
    <path d="M16 6h.01" />
    <path d="M12 6h.01" />
  </symbol>

  <symbol id="icon-plus" viewBox="0 0 24 24">
    <line x1="12" y1="5" x2="12" y2="19" />
    <line x1="5" y1="12" x2="19" y2="12" />
  </symbol>

  <symbol id="icon-social-1" viewBox="0 0 24 24">
    <path d="M9 19c-5 1.5-5-2.5-7-3m14 6v-3.87a3.37 3.37 0 0 0-.94-2.61c3.14-.35 6.44-1.54 6.44-7A5.44 5.44 0 0 0 20 4.77 5.07 5.07 0 0 0 19.91 1S18.73.65 16 2.48a13.38 13.38 0 0 0-7 0C6.27.65 5.09 1 5.09 1A5.07 5.07 0 0 0 5 4.77a5.44 5.44 0 0 0-1.5 3.78c0 5.42 3.3 6.61 6.44 7A3.37 3.37 0 0 0 9 18.13V22" />
  </symbol>

  <symbol id="icon-social-2" viewBox="0 0 24 24">
    <rect x="3" y="11" width="18" height="11" rx="2" ry="2" />
    <path d="M7 11V7a5 5 0 0 1 10 0v4" />
  </symbol>

    <symbol id="icon-bar-chart" viewBox="0 0 24 24">
    <line x1="18" y1="20" x2="18" y2="10" />
    <line x1="12" y1="20" x2="12" y2="4" />
    <line x1="6" y1="20" x2="6" y2="14" />
  </symbol>
</svg>